<svg xmlns="http://www.w3.org/2000/svg" xmlns:xlink="http://www.w3.org/1999/xlink" viewBox="0 0 280 250" preserveAspectRatio="xMidYMid" style="display: block; shape-rendering: auto; background: transparent;" width="280" height="250"><style type="text/css">
  .ld-text text {
    text-anchor: middle;
    dominant-baseline: middle;
    font-size: 43px;
    opacity: 0;
    user-select: none;
    pointer-events: none;
  }
</style>
<g style="transform-origin:140px 125px;transform:scale(1)" class="ld-text">
<g transform="translate(140,125)">
  <g transform="scale(0.5375) translate(0,0)"><g class="path" style="opacity: 1; transform-origin: -194.92px 10.52px; transform: matrix3d(1, 0, 0, 0, 0, 1, 0, 0, 0, 0, 1, 0, 0, 0, 0, 1); animation: 0.3861s linear -0.23166s infinite normal forwards running animate-h5gmx5rvdk; transform-box: view-box;"><path d="M17.20-8.89L17.20-8.89L17.92-12.81Q17.52-12.97 17.04-13.01Q16.56-13.05 16.08-13.05Q15.60-13.05 15.04-13.05L15.04-13.05Q13.12-13.05 11.04-12.45Q8.96-11.85 7.16-10.41Q5.36-8.97 4.24-6.49Q3.12-4.01 3.12-0.25L3.12-0.25L3.12 43.75L7.68 43.75L7.68 7.99L14.96 7.99L16.80 3.75L7.68 3.75L7.68-0.25Q7.68-2.41 8.16-4.09Q8.64-5.77 9.56-6.85Q10.48-7.93 11.88-8.49Q13.28-9.05 15.12-9.05L15.12-9.05Q15.60-9.05 16.12-9.05Q16.64-9.05 17.20-8.89" style="fill: rgb(241, 79, 56);" transform="translate(-205.440,-21.873)"></path></g><g class="path" style="opacity: 1; transform-origin: -156.28px 13.73px; transform: matrix3d(1, 0, 0, 0, 0, 1, 0, 0, 0, 0, 1, 0, 0, 0, 0, 1); animation: 0.3861s linear -0.208494s infinite normal forwards running animate-h5gmx5rvdk; transform-box: view-box;"><path d="M70.64 16.39L70.64 16.39L70.64 43.75L74.88 43.75L74.88 16.23Q74.88 13.03 74.08 10.55Q73.28 8.07 71.64 6.39Q70 4.71 67.56 3.87Q65.12 3.03 61.76 3.03L61.76 3.03Q59.52 3.03 57.28 3.59Q55.04 4.15 52.96 5.15Q50.88 6.15 49.12 7.51L49.12 7.51Q48.08 6.07 46.52 5.07Q44.96 4.07 42.92 3.55Q40.88 3.03 38.32 3.03L38.32 3.03Q36.32 3.03 34.56 3.47Q32.80 3.91 31.20 4.67Q29.60 5.43 28 6.47L28 6.47L28 3.75L23.44 3.75L23.44 43.75L28 43.75L28 9.91Q29.68 8.95 31.12 8.31Q32.56 7.67 34.12 7.35Q35.68 7.03 37.52 7.03L37.52 7.03Q39.44 7.03 41.20 7.47Q42.96 7.91 44.28 8.99Q45.60 10.07 46.40 11.87Q47.20 13.67 47.20 16.39L47.20 16.39L47.20 43.75L51.36 43.75L51.36 16.23Q51.36 14.55 51.16 13.07Q50.96 11.59 50.48 10.31L50.48 10.31Q52.40 9.11 54.20 8.39Q56 7.67 57.72 7.35Q59.44 7.03 60.96 7.03L60.96 7.03Q62.88 7.03 64.60 7.47Q66.32 7.91 67.68 8.99Q69.04 10.07 69.84 11.87Q70.64 13.67 70.64 16.39" style="fill: rgb(241, 79, 56);" transform="translate(-205.440,-21.873)"></path></g><g class="path" style="opacity: 1; transform-origin: -111.04px -7.53px; transform: matrix3d(1, 0, 0, 0, 0, 1, 0, 0, 0, 0, 1, 0, 0, 0, 0, 1); animation: 0.3861s linear -0.185328s infinite normal forwards running animate-h5gmx5rvdk; transform-box: view-box;"><path d="M81.60 10.63L81.60 15.27L107.20 15.27L107.20 10.63L81.60 10.63" style="fill: rgb(241, 79, 56);" transform="translate(-205.440,-21.873)"></path></g><g class="path" style="opacity: 1; transform-origin: -80px 14.43px; transform: matrix3d(1, 0, 0, 0, 0, 1, 0, 0, 0, 0, 1, 0, 0, 0, 0, 1); animation: 0.3861s linear -0.162162s infinite normal forwards running animate-h5gmx5rvdk; transform-box: view-box;"><path d="M137.04 9.11L137.04 9.11L138.16 5.51Q135.68 4.39 132.92 3.67Q130.16 2.95 127.44 2.95L127.44 2.95Q122.48 2.95 119.16 4.87Q115.84 6.79 114.20 10.23Q112.56 13.67 112.56 18.23L112.56 18.23L112.56 29.83Q112.56 34.95 114.44 38.19Q116.32 41.43 119.76 42.99Q123.20 44.55 127.76 44.63L127.76 44.63Q130.40 44.71 133.12 44.35Q135.84 43.99 138.32 43.35L138.32 43.35L137.44 39.35Q137.52 39.35 136.72 39.51Q135.92 39.67 134.52 39.91Q133.12 40.15 131.40 40.31Q129.68 40.47 127.92 40.47L127.92 40.47Q125.04 40.39 122.96 39.71Q120.88 39.03 119.52 37.67Q118.16 36.31 117.56 34.11Q116.96 31.91 116.96 28.87L116.96 28.87L117.04 18.87Q117.12 15.43 118.16 12.75Q119.20 10.07 121.52 8.55Q123.84 7.03 127.60 7.03L127.60 7.03Q129.92 7.11 132.44 7.63Q134.96 8.15 137.04 9.11" style="fill: rgb(241, 79, 56);" transform="translate(-205.440,-21.873)"></path></g><g class="path" style="opacity: 1; transform-origin: -48.56px 14.32px; transform: matrix3d(1, 0, 0, 0, 0, 1, 0, 0, 0, 0, 1, 0, 0, 0, 0, 1); animation: 0.3861s linear -0.138996s infinite normal forwards running animate-h5gmx5rvdk; transform-box: view-box;"><path d="M171.68 28.95L171.68 28.95L171.68 18.47Q171.68 11.11 167.92 6.95Q164.16 2.79 157.04 2.79L157.04 2.79Q152.32 2.79 148.96 4.59Q145.60 6.39 143.84 9.87Q142.08 13.35 142.08 18.47L142.08 18.47L142.08 28.95Q142.08 33.27 143.76 36.79Q145.44 40.31 148.84 42.43Q152.24 44.55 157.20 44.55L157.20 44.55Q164.48 44.55 168.08 40.27Q171.68 35.99 171.68 28.95 zM167.20 18.47L167.20 18.47L167.20 29.75Q167.20 33.03 166.12 35.47Q165.04 37.91 162.80 39.23Q160.56 40.55 157.20 40.55L157.20 40.55Q154 40.55 151.60 39.19Q149.20 37.83 147.88 35.39Q146.56 32.95 146.56 29.75L146.56 29.75L146.56 18.47Q146.56 14.63 147.76 12.03Q148.96 9.43 151.32 8.11Q153.68 6.79 157.20 6.79L157.20 6.79Q160.72 6.79 162.92 8.11Q165.12 9.43 166.16 12.03Q167.20 14.63 167.20 18.47" style="fill: rgb(241, 79, 56);" transform="translate(-205.440,-21.873)"></path></g><g class="path" style="opacity: 1; transform-origin: -1.56px 13.73px; transform: matrix3d(1, 0, 0, 0, 0, 1, 0, 0, 0, 0, 1, 0, 0, 0, 0, 1); animation: 0.3861s linear -0.11583s infinite normal forwards running animate-h5gmx5rvdk; transform-box: view-box;"><path d="M225.36 16.39L225.36 16.39L225.36 43.75L229.60 43.75L229.60 16.23Q229.60 13.03 228.80 10.55Q228 8.07 226.36 6.39Q224.72 4.71 222.28 3.87Q219.84 3.03 216.48 3.03L216.48 3.03Q214.24 3.03 212 3.59Q209.76 4.15 207.68 5.15Q205.60 6.15 203.84 7.51L203.84 7.51Q202.80 6.07 201.24 5.07Q199.68 4.07 197.64 3.55Q195.60 3.03 193.04 3.03L193.04 3.03Q191.04 3.03 189.28 3.47Q187.52 3.91 185.92 4.67Q184.32 5.43 182.72 6.47L182.72 6.47L182.72 3.75L178.16 3.75L178.16 43.75L182.72 43.75L182.72 9.91Q184.40 8.95 185.84 8.31Q187.28 7.67 188.84 7.35Q190.40 7.03 192.24 7.03L192.24 7.03Q194.16 7.03 195.92 7.47Q197.68 7.91 199 8.99Q200.32 10.07 201.12 11.87Q201.92 13.67 201.92 16.39L201.92 16.39L201.92 43.75L206.08 43.75L206.08 16.23Q206.08 14.55 205.88 13.07Q205.68 11.59 205.20 10.31L205.20 10.31Q207.12 9.11 208.92 8.39Q210.72 7.67 212.44 7.35Q214.16 7.03 215.68 7.03L215.68 7.03Q217.60 7.03 219.32 7.47Q221.04 7.91 222.40 8.99Q223.76 10.07 224.56 11.87Q225.36 13.67 225.36 16.39" style="fill: rgb(241, 79, 56);" transform="translate(-205.440,-21.873)"></path></g><g class="path" style="opacity: 1; transform-origin: 56.6px 13.73px; transform: matrix3d(1, 0, 0, 0, 0, 1, 0, 0, 0, 0, 1, 0, 0, 0, 0, 1); animation: 0.3861s linear -0.0926641s infinite normal forwards running animate-h5gmx5rvdk; transform-box: view-box;"><path d="M283.52 16.39L283.52 16.39L283.52 43.75L287.76 43.75L287.76 16.23Q287.76 13.03 286.96 10.55Q286.16 8.07 284.52 6.39Q282.88 4.71 280.44 3.87Q278 3.03 274.64 3.03L274.64 3.03Q272.40 3.03 270.16 3.59Q267.92 4.15 265.84 5.15Q263.76 6.15 262 7.51L262 7.51Q260.96 6.07 259.40 5.07Q257.84 4.07 255.80 3.55Q253.76 3.03 251.20 3.03L251.20 3.03Q249.20 3.03 247.44 3.47Q245.68 3.91 244.08 4.67Q242.48 5.43 240.88 6.47L240.88 6.47L240.88 3.75L236.32 3.75L236.32 43.75L240.88 43.75L240.88 9.91Q242.56 8.95 244 8.31Q245.44 7.67 247 7.35Q248.56 7.03 250.40 7.03L250.40 7.03Q252.32 7.03 254.08 7.47Q255.84 7.91 257.16 8.99Q258.48 10.07 259.28 11.87Q260.08 13.67 260.08 16.39L260.08 16.39L260.08 43.75L264.24 43.75L264.24 16.23Q264.24 14.55 264.04 13.07Q263.84 11.59 263.36 10.31L263.36 10.31Q265.28 9.11 267.08 8.39Q268.88 7.67 270.60 7.35Q272.32 7.03 273.84 7.03L273.84 7.03Q275.76 7.03 277.48 7.47Q279.20 7.91 280.56 8.99Q281.92 10.07 282.72 11.87Q283.52 13.67 283.52 16.39" style="fill: rgb(241, 79, 56);" transform="translate(-205.440,-21.873)"></path></g><g class="path" style="opacity: 1; transform-origin: 103.24px 14.49px; transform: matrix3d(1, 0, 0, 0, 0, 1, 0, 0, 0, 0, 1, 0, 0, 0, 0, 1); animation: 0.3861s linear -0.0694981s infinite normal forwards running animate-h5gmx5rvdk; transform-box: view-box;"><path d="M298.72 33.03L298.72 33.03L298.72 28.07L323.12 26.79L323.12 16.39Q323.12 11.91 321.40 8.95Q319.68 5.99 316.52 4.47Q313.36 2.95 309.04 2.95L309.04 2.95Q304.80 2.95 301.44 4.47Q298.08 5.99 296.16 9.03Q294.24 12.07 294.24 16.63L294.24 16.63L294.24 33.03Q294.24 36.39 295.24 38.63Q296.24 40.87 298.08 42.23Q299.92 43.59 302.48 44.15Q305.04 44.71 308.08 44.71L308.08 44.71Q311.12 44.71 314.64 43.71Q318.16 42.71 321.12 40.95L321.12 40.95L319.36 37.51Q316.40 39.03 313.52 39.95Q310.64 40.87 307.68 40.87L307.68 40.87Q305.76 40.87 304.12 40.43Q302.48 39.99 301.28 39.07Q300.08 38.15 299.40 36.67Q298.72 35.19 298.72 33.03 zM318.64 15.83L318.64 15.83L318.64 22.79L298.72 23.67L298.72 16.71Q298.72 13.51 299.96 11.27Q301.20 9.03 303.52 7.87Q305.84 6.71 308.96 6.71L308.96 6.71Q311.76 6.71 313.92 7.83Q316.08 8.95 317.36 10.99Q318.64 13.03 318.64 15.83" style="fill: rgb(241, 79, 56);" transform="translate(-205.440,-21.873)"></path></g><g class="path" style="opacity: 1; transform-origin: 134.96px 13.68px; transform: matrix3d(1, 0, 0, 0, 0, 1, 0, 0, 0, 0, 1, 0, 0, 0, 0, 1); animation: 0.3861s linear -0.046332s infinite normal forwards running animate-h5gmx5rvdk; transform-box: view-box;"><path d="M350.96 6.87L350.96 6.87L351.28 3.03Q351.28 3.03 350.20 2.87Q349.12 2.71 347.68 2.79L347.68 2.79Q343.36 3.03 340.20 3.99Q337.04 4.95 334.08 6.31L334.08 6.31L334.08 3.67L329.52 3.67L329.52 43.75L334.08 43.75L334.08 11.03Q335.20 10.31 336.80 9.55Q338.40 8.79 340.24 8.19Q342.08 7.59 344 7.23Q345.92 6.87 347.60 6.79L347.60 6.79Q348.96 6.71 349.96 6.79Q350.96 6.87 350.96 6.87" style="fill: rgb(241, 79, 56);" transform="translate(-205.440,-21.873)"></path></g><g class="path" style="opacity: 1; transform-origin: 162.32px 14.43px; transform: matrix3d(1, 0, 0, 0, 0, 1, 0, 0, 0, 0, 1, 0, 0, 0, 0, 1); animation: 0.3861s linear -0.023166s infinite normal forwards running animate-h5gmx5rvdk; transform-box: view-box;"><path d="M379.36 9.11L379.36 9.11L380.48 5.51Q378 4.39 375.24 3.67Q372.48 2.95 369.76 2.95L369.76 2.95Q364.80 2.95 361.48 4.87Q358.16 6.79 356.52 10.23Q354.88 13.67 354.88 18.23L354.88 18.23L354.88 29.83Q354.88 34.95 356.76 38.19Q358.64 41.43 362.08 42.99Q365.52 44.55 370.08 44.63L370.08 44.63Q372.72 44.71 375.44 44.35Q378.16 43.99 380.64 43.35L380.64 43.35L379.76 39.35Q379.84 39.35 379.04 39.51Q378.24 39.67 376.84 39.91Q375.44 40.15 373.72 40.31Q372 40.47 370.24 40.47L370.24 40.47Q367.36 40.39 365.28 39.71Q363.20 39.03 361.84 37.67Q360.48 36.31 359.88 34.11Q359.28 31.91 359.28 28.87L359.28 28.87L359.36 18.87Q359.44 15.43 360.48 12.75Q361.52 10.07 363.84 8.55Q366.16 7.03 369.92 7.03L369.92 7.03Q372.24 7.11 374.76 7.63Q377.28 8.15 379.36 9.11" style="fill: rgb(241, 79, 56);" transform="translate(-205.440,-21.873)"></path></g><g class="path" style="opacity: 1; transform-origin: 194.12px 14.49px; transform: matrix3d(1, 0, 0, 0, 0, 1, 0, 0, 0, 0, 1, 0, 0, 0, 0, 1); animation: 0.3861s linear 0s infinite normal forwards running animate-h5gmx5rvdk; transform-box: view-box;"><path d="M389.60 33.03L389.60 33.03L389.60 28.07L414 26.79L414 16.39Q414 11.91 412.28 8.95Q410.56 5.99 407.40 4.47Q404.24 2.95 399.92 2.95L399.92 2.95Q395.68 2.95 392.32 4.47Q388.96 5.99 387.04 9.03Q385.12 12.07 385.12 16.63L385.12 16.63L385.12 33.03Q385.12 36.39 386.12 38.63Q387.12 40.87 388.96 42.23Q390.80 43.59 393.36 44.15Q395.92 44.71 398.96 44.71L398.96 44.71Q402 44.71 405.52 43.71Q409.04 42.71 412 40.95L412 40.95L410.24 37.51Q407.28 39.03 404.40 39.95Q401.52 40.87 398.56 40.87L398.56 40.87Q396.64 40.87 395 40.43Q393.36 39.99 392.16 39.07Q390.96 38.15 390.28 36.67Q389.60 35.19 389.60 33.03 zM409.52 15.83L409.52 15.83L409.52 22.79L389.60 23.67L389.60 16.71Q389.60 13.51 390.84 11.27Q392.08 9.03 394.40 7.87Q396.72 6.71 399.84 6.71L399.84 6.71Q402.64 6.71 404.80 7.83Q406.96 8.95 408.24 10.99Q409.52 13.03 409.52 15.83" style="fill: rgb(241, 79, 56);" transform="translate(-205.440,-21.873)"></path></g></g><text dy="0.35em" fill="#f14f38" font-family="Advent Pro" font-size="43">fm-commerce</text>
</g>
</g><style type="text/css">@keyframes animate-h5gmx5rvdk { 0.00% {transform: translate(0.00px,0.00px) rotate(0.00deg) scale(1.00, 1.00) skew(0deg, 0.00deg) ;opacity: 1.00;}2.00% {animation-timing-function: cubic-bezier(0.20,0.39,0.50,0.97);transform: translate(0.00px,-1.08px) rotate(0.00deg) ;}36.00% {animation-timing-function: cubic-bezier(0.50,0.03,0.80,0.61);transform: translate(0.00px,-10.00px) rotate(0.00deg) ;}72.00% {transform: translate(0.00px,0.00px) rotate(0.00deg) ;}74.00% {animation-timing-function: cubic-bezier(0.23,0.43,0.48,0.91);transform: translate(0.00px,0.00px) rotate(0.00deg) scale(1.00, 0.95) ;}86.00% {animation-timing-function: cubic-bezier(0.52,0.09,0.77,0.57);transform: translate(0.00px,0.00px) rotate(0.00deg) scale(1.00, 0.80) ;}100.00% {animation-timing-function: cubic-bezier(0.52,0.09,0.77,0.57);transform: translate(0.00px,0.00px) rotate(0.00deg) scale(1.00, 1.00) ;} }</style><!-- [ldio] generated by https://loading.io --></svg>